# Blender v2.58 (sub 1) OBJ File: ''
# www.blender.org
mtllib lander.mtl
v 1.000000 0.000000 1.000000
v 0.980785 -0.195090 1.000000
v 0.923880 -0.382683 1.000000
v 0.831470 -0.555570 1.000000
v 0.707107 -0.707107 1.000000
v 0.555570 -0.831470 1.000000
v 0.382683 -0.923880 1.000000
v 0.195090 -0.980785 1.000000
v 0.000000 -1.000000 1.000000
v -0.195090 -0.980785 1.000000
v -0.382683 -0.923880 1.000000
v -0.555570 -0.831470 1.000000
v -0.707107 -0.707107 1.000000
v -0.831470 -0.555570 1.000000
v -0.923880 -0.382683 1.000000
v -0.980785 -0.195090 1.000000
v -1.000000 0.000000 1.000000
v -0.980785 0.195091 1.000000
v -0.923879 0.382684 1.000000
v -0.831469 0.555571 1.000000
v -0.707106 0.707107 1.000000
v -0.555570 0.831470 1.000000
v -0.382683 0.923880 1.000000
v -0.195089 0.980785 1.000000
v 0.000001 1.000000 1.000000
v 0.195091 0.980785 1.000000
v 0.382684 0.923879 1.000000
v 0.555571 0.831469 1.000000
v 0.707108 0.707106 1.000000
v 0.831470 0.555569 1.000000
v 0.923880 0.382682 1.000000
v 0.980786 0.195089 1.000000
v 0.000000 0.000000 3.000000
v 0.000000 0.000000 1.000000
vn 0.890977 -0.087754 0.445488
vn 0.856737 -0.259888 0.445488
vn 0.789573 -0.422036 0.445488
vn 0.692067 -0.567965 0.445488
vn 0.567965 -0.692067 0.445488
vn 0.422036 -0.789573 0.445488
vn 0.259888 -0.856737 0.445488
vn 0.087754 -0.890977 0.445488
vn -0.087753 -0.890977 0.445488
vn -0.259888 -0.856737 0.445488
vn -0.422035 -0.789573 0.445488
vn -0.567965 -0.692067 0.445488
vn -0.692067 -0.567965 0.445488
vn -0.789573 -0.422036 0.445488
vn -0.856737 -0.259888 0.445488
vn -0.890977 -0.087753 0.445488
vn -0.890977 0.087754 0.445488
vn -0.856737 0.259889 0.445488
vn -0.789573 0.422036 0.445488
vn -0.692066 0.567965 0.445488
vn -0.567964 0.692067 0.445488
vn -0.422035 0.789574 0.445488
vn -0.259887 0.856737 0.445488
vn -0.087753 0.890977 0.445488
vn 0.087754 0.890977 0.445488
vn 0.259889 0.856737 0.445488
vn 0.422037 0.789573 0.445488
vn 0.567966 0.692066 0.445488
vn 0.692067 0.567964 0.445488
vn 0.789574 0.422035 0.445488
vn 0.856737 0.259887 0.445488
vn 0.890977 0.087753 0.445488
vn 0.000000 0.000000 -1.000000
usemtl Material.001
s off
f 2//1 1//1 33//1
f 33//2 3//2 2//2
f 33//3 4//3 3//3
f 33//4 5//4 4//4
f 33//5 6//5 5//5
f 33//6 7//6 6//6
f 33//7 8//7 7//7
f 33//8 9//8 8//8
f 33//9 10//9 9//9
f 33//10 11//10 10//10
f 33//11 12//11 11//11
f 33//12 13//12 12//12
f 33//13 14//13 13//13
f 33//14 15//14 14//14
f 33//15 16//15 15//15
f 33//16 17//16 16//16
f 33//17 18//17 17//17
f 33//18 19//18 18//18
f 33//19 20//19 19//19
f 33//20 21//20 20//20
f 33//21 22//21 21//21
f 33//22 23//22 22//22
f 33//23 24//23 23//23
f 33//24 25//24 24//24
f 33//25 26//25 25//25
f 33//26 27//26 26//26
f 33//27 28//27 27//27
f 33//28 29//28 28//28
f 33//29 30//29 29//29
f 33//30 31//30 30//30
f 33//31 32//31 31//31
f 33//32 1//32 32//32
f 34//33 1//33 2//33
f 34//33 2//33 3//33
f 34//33 3//33 4//33
f 34//33 4//33 5//33
f 34//33 5//33 6//33
f 34//33 6//33 7//33
f 34//33 7//33 8//33
f 34//33 8//33 9//33
f 34//33 9//33 10//33
f 34//33 10//33 11//33
f 34//33 11//33 12//33
f 34//33 12//33 13//33
f 34//33 13//33 14//33
f 34//33 14//33 15//33
f 34//33 15//33 16//33
f 34//33 16//33 17//33
f 34//33 17//33 18//33
f 34//33 18//33 19//33
f 34//33 19//33 20//33
f 34//33 20//33 21//33
f 34//33 21//33 22//33
f 34//33 22//33 23//33
f 34//33 23//33 24//33
f 34//33 24//33 25//33
f 34//33 25//33 26//33
f 34//33 26//33 27//33
f 34//33 27//33 28//33
f 34//33 28//33 29//33
f 34//33 29//33 30//33
f 34//33 30//33 31//33
f 34//33 31//33 32//33
f 32//33 1//33 34//33
v 1.000000 0.000000 -1.000000
v 0.980785 -0.195090 -1.000000
v 0.923880 -0.382683 -1.000000
v 0.831470 -0.555570 -1.000000
v 0.707107 -0.707107 -1.000000
v 0.555570 -0.831470 -1.000000
v 0.382683 -0.923880 -1.000000
v 0.195090 -0.980785 -1.000000
v 0.000000 -1.000000 -1.000000
v -0.195090 -0.980785 -1.000000
v -0.382683 -0.923880 -1.000000
v -0.555570 -0.831470 -1.000000
v -0.707107 -0.707107 -1.000000
v -0.831470 -0.555570 -1.000000
v -0.923880 -0.382683 -1.000000
v -0.980785 -0.195090 -1.000000
v -1.000000 0.000000 -1.000000
v -0.980785 0.195091 -1.000000
v -0.923879 0.382684 -1.000000
v -0.831469 0.555571 -1.000000
v -0.707106 0.707107 -1.000000
v -0.555570 0.831470 -1.000000
v -0.382683 0.923880 -1.000000
v -0.195089 0.980785 -1.000000
v 0.000001 1.000000 -1.000000
v 0.195091 0.980785 -1.000000
v 0.382684 0.923879 -1.000000
v 0.555571 0.831469 -1.000000
v 0.707108 0.707106 -1.000000
v 0.831470 0.555569 -1.000000
v 0.923880 0.382682 -1.000000
v 0.980786 0.195089 -1.000000
v 1.000000 -0.000002 1.000000
v 0.980785 -0.195092 1.000000
v 0.923879 -0.382685 1.000000
v 0.831469 -0.555572 1.000000
v 0.707105 -0.707108 1.000000
v 0.555569 -0.831471 1.000000
v 0.382682 -0.923880 1.000000
v 0.195088 -0.980786 1.000000
v -0.000002 -1.000000 1.000000
v -0.195092 -0.980785 1.000000
v -0.382685 -0.923879 1.000000
v -0.555571 -0.831469 1.000000
v -0.707107 -0.707106 1.000000
v -0.831470 -0.555570 1.000000
v -0.923880 -0.382684 1.000000
v -0.980785 -0.195091 1.000000
v -1.000000 -0.000001 1.000000
v -0.980786 0.195089 1.000000
v -0.923880 0.382682 1.000000
v -0.831471 0.555568 1.000000
v -0.707109 0.707105 1.000000
v -0.555573 0.831468 1.000000
v -0.382686 0.923878 1.000000
v -0.195094 0.980785 1.000000
v -0.000004 1.000000 1.000000
v 0.195086 0.980786 1.000000
v 0.382679 0.923881 1.000000
v 0.555566 0.831473 1.000000
v 0.707103 0.707111 1.000000
v 0.831466 0.555575 1.000000
v 0.923877 0.382689 1.000000
v 0.980784 0.195097 1.000000
v 0.000000 0.000000 -1.000000
v 0.000000 0.000000 1.000000
vn 0.000000 0.000000 1.000000
vn 0.995185 -0.098018 -0.000000
vn 0.956940 -0.290285 -0.000000
vn 0.881921 -0.471397 -0.000000
vn 0.773010 -0.634394 -0.000000
vn 0.634393 -0.773011 0.000000
vn 0.471396 -0.881922 -0.000000
vn 0.290284 -0.956941 -0.000000
vn 0.098016 -0.995185 -0.000000
vn -0.098018 -0.995185 -0.000000
vn -0.290285 -0.956940 -0.000000
vn -0.471397 -0.881921 -0.000000
vn -0.634394 -0.773010 -0.000000
vn -0.773011 -0.634393 -0.000000
vn -0.881921 -0.471397 -0.000000
vn -0.956940 -0.290285 -0.000000
vn -0.995185 -0.098017 -0.000000
vn -0.995185 0.098017 -0.000000
vn -0.956940 0.290284 -0.000000
vn -0.881922 0.471396 -0.000000
vn -0.773011 0.634393 0.000000
vn -0.634394 0.773010 0.000000
vn -0.471398 0.881921 0.000000
vn -0.290286 0.956940 -0.000000
vn -0.098019 0.995185 -0.000000
vn 0.098016 0.995185 -0.000000
vn 0.290283 0.956941 -0.000000
vn 0.471395 0.881922 -0.000000
vn 0.634392 0.773012 -0.000000
vn 0.773009 0.634395 -0.000000
vn 0.881920 0.471399 -0.000000
vn 0.956940 0.290287 -0.000000
vn 0.995185 0.098018 0.000000
usemtl Material.002
s off
f 99//33 35//33 36//33
f 100//34 68//34 67//34
f 99//33 36//33 37//33
f 100//34 69//34 68//34
f 99//33 37//33 38//33
f 100//34 70//34 69//34
f 99//33 38//33 39//33
f 100//34 71//34 70//34
f 99//33 39//33 40//33
f 100//34 72//34 71//34
f 99//33 40//33 41//33
f 100//34 73//34 72//34
f 99//33 41//33 42//33
f 100//34 74//34 73//34
f 99//33 42//33 43//33
f 100//34 75//34 74//34
f 99//33 43//33 44//33
f 100//34 76//34 75//34
f 99//33 44//33 45//33
f 100//34 77//34 76//34
f 99//33 45//33 46//33
f 100//34 78//34 77//34
f 99//33 46//33 47//33
f 100//34 79//34 78//34
f 99//33 47//33 48//33
f 100//34 80//34 79//34
f 99//33 48//33 49//33
f 100//34 81//34 80//34
f 99//33 49//33 50//33
f 100//34 82//34 81//34
f 99//33 50//33 51//33
f 100//34 83//34 82//34
f 99//33 51//33 52//33
f 100//34 84//34 83//34
f 99//33 52//33 53//33
f 100//34 85//34 84//34
f 99//33 53//33 54//33
f 100//34 86//34 85//34
f 99//33 54//33 55//33
f 100//34 87//34 86//34
f 99//33 55//33 56//33
f 100//34 88//34 87//34
f 99//33 56//33 57//33
f 100//34 89//34 88//34
f 99//33 57//33 58//33
f 100//34 90//34 89//34
f 99//33 58//33 59//33
f 100//34 91//34 90//34
f 99//33 59//33 60//33
f 100//34 92//34 91//34
f 99//33 60//33 61//33
f 100//34 93//34 92//34
f 99//33 61//33 62//33
f 100//34 94//34 93//34
f 99//33 62//33 63//33
f 100//34 95//34 94//34
f 99//33 63//33 64//33
f 100//34 96//34 95//34
f 99//33 64//33 65//33
f 100//34 97//34 96//34
f 99//33 65//33 66//33
f 100//34 98//34 97//34
f 66//33 35//33 99//33
f 100//34 67//34 98//34
f 35//35 67//35 68//35
f 35//35 68//35 36//35
f 36//36 68//36 69//36
f 36//36 69//36 37//36
f 37//37 69//37 70//37
f 37//37 70//37 38//37
f 38//38 70//38 71//38
f 38//38 71//38 39//38
f 39//39 71//39 72//39
f 39//39 72//39 40//39
f 40//40 72//40 73//40
f 40//40 73//40 41//40
f 41//41 73//41 74//41
f 41//41 74//41 42//41
f 42//42 74//42 75//42
f 42//42 75//42 43//42
f 43//43 75//43 76//43
f 43//43 76//43 44//43
f 44//44 76//44 77//44
f 44//44 77//44 45//44
f 45//45 77//45 78//45
f 45//45 78//45 46//45
f 46//46 78//46 79//46
f 46//46 79//46 47//46
f 47//47 79//47 80//47
f 47//47 80//47 48//47
f 48//48 80//48 81//48
f 48//48 81//48 49//48
f 49//49 81//49 82//49
f 49//49 82//49 50//49
f 50//50 82//50 83//50
f 50//50 83//50 51//50
f 51//51 83//51 84//51
f 51//51 84//51 52//51
f 52//52 84//52 85//52
f 52//52 85//52 53//52
f 53//53 85//53 86//53
f 53//53 86//53 54//53
f 54//54 86//54 87//54
f 54//54 87//54 55//54
f 55//55 87//55 88//55
f 55//55 88//55 56//55
f 56//56 88//56 89//56
f 56//56 89//56 57//56
f 57//57 89//57 90//57
f 57//57 90//57 58//57
f 58//58 90//58 91//58
f 58//58 91//58 59//58
f 59//59 91//59 92//59
f 59//59 92//59 60//59
f 60//60 92//60 93//60
f 60//60 93//60 61//60
f 61//61 93//61 94//61
f 61//61 94//61 62//61
f 62//62 94//62 95//62
f 62//62 95//62 63//62
f 63//63 95//63 96//63
f 63//63 96//63 64//63
f 64//64 96//64 97//64
f 64//64 97//64 65//64
f 65//65 97//65 98//65
f 65//65 98//65 66//65
f 67//66 35//66 66//66
f 67//66 66//66 98//66
